<svg xmlns="http://www.w3.org/2000/svg" role="img" viewBox="0 0 24 24" fill="none">
  <title>Discord</title>
  <path fill="#5865F2" d="M20.317 4.369a19.791 19.791 0 0 0-4.885-1.515.074.074 0 0 0-.079.037 12.307 12.307 0 0 0-.608 1.249 18.978 18.978 0 0 0-5.486 0 11.638 11.638 0 0 0-.63-1.249.074.074 0 0 0-.079-.037 19.736 19.736 0 0 0-4.885 1.515.07.07 0 0 0-.032.027C.533 9.045-.32 13.58.099 18.057a.082.082 0 0 0 .031.056 19.9 19.9 0 0 0 5.993 3.03.078.078 0 0 0 .084-.027 15.6 15.6 0 0 0 1.226-1.994.076.076 0 0 0-.041-.105 12.92 12.92 0 0 1-1.872-.896.077.077 0 0 1-.008-.128c.125-.094.25-.192.368-.291a.074.074 0 0 1 .077-.01c3.927 1.793 8.18 1.793 12.061 0a.074.074 0 0 1 .078.009c.118.099.243.198.369.292a.077.077 0 0 1-.006.128c-.592.357-1.208.665-1.873.895a.076.076 0 0 0-.04.106c.36.698.772 1.362 1.225 1.993a.078.078 0 0 0 .084.028 19.87 19.87 0 0 0 5.994-3.03.077.077 0 0 0 .031-.055c.5-5.177-.838-9.674-3.548-13.661a.061.061 0 0 0-.031-.028zM8.02 15.331c-1.183 0-2.157-1.086-2.157-2.419 0-1.333.955-2.419 2.157-2.419 1.211 0 2.176 1.096 2.157 2.419 0 1.333-.955 2.419-2.157 2.419zm7.975 0c-1.183 0-2.157-1.086-2.157-2.419 0-1.333.955-2.419 2.157-2.419 1.211 0 2.176 1.096 2.157 2.419 0 1.333-.946 2.419-2.157 2.419z"/>
</svg>
