<svg xmlns="http://www.w3.org/2000/svg" viewBox="0 0 100 100">
  <defs>
    <radialGradient id="moonSurface" cx="50%" cy="50%" r="50%">
      <stop offset="0%" style="stop-color:#ffffff"/>
      <stop offset="50%" style="stop-color:#f4f4f4"/>
      <stop offset="100%" style="stop-color:#e6e6e6"/>
    </radialGradient>
    
    <radialGradient id="moonGlow" cx="50%" cy="50%" r="50%">
      <stop offset="0%" style="stop-color:rgba(255, 255, 255, 0.3)"/>
      <stop offset="100%" style="stop-color:rgba(255, 255, 255, 0)"/>
    </radialGradient>
  </defs>

  <circle cx="50" cy="50" r="47.5" fill="url(#moonGlow)"/>
  <circle cx="50" cy="50" r="40" fill="url(#moonSurface)"/>
  
  <g opacity="0.15">
    <circle cx="35" cy="40" r="7.5" fill="#808080"/>
    <circle cx="65" cy="55" r="10" fill="#808080"/>
    <circle cx="45" cy="70" r="6" fill="#808080"/>
    <circle cx="55" cy="30" r="4" fill="#808080"/>
    <circle cx="25" cy="55" r="5" fill="#808080"/>
    <circle cx="75" cy="35" r="3.5" fill="#808080"/>
    <circle cx="42.5" cy="47.5" r="2.5" fill="#808080"/>
    <circle cx="60" cy="42.5" r="2" fill="#808080"/>
    <circle cx="70" cy="70" r="3" fill="#808080"/>
    <circle cx="30" cy="70" r="1.5" fill="#808080"/>
  </g>
  
  <g opacity="0.1">
    <path d="M30 35 Q40 30 50 35 T70 35" fill="#808080"/>
    <path d="M25 50 Q35 45 45 50 T65 50" fill="#808080"/>
    <path d="M35 65 Q45 60 55 65 T75 65" fill="#808080"/>
  </g>
  
  <g opacity="0.05">
    <path d="M15 50 Q50 40 85 50" fill="none" stroke="#000" stroke-width="10"/>
    <path d="M20 70 Q50 60 80 70" fill="none" stroke="#000" stroke-width="7.5"/>
  </g>
</svg>