<svg xmlns="http://www.w3.org/2000/svg" width="1200" height="630" viewBox="0 0 1200 630" role="img" aria-labelledby="title desc">
  <title id="title">Scriptagher project cover</title>
  <desc id="desc">Abstract representation of cross-platform scripting tools with Flutter and Angular elements.</desc>
  <defs>
    <linearGradient id="bg" x1="0%" y1="0%" x2="100%" y2="100%">
      <stop offset="0%" stop-color="#022c22" />
      <stop offset="100%" stop-color="#115e59" />
    </linearGradient>
    <linearGradient id="panel" x1="0%" y1="0%" x2="100%" y2="0%">
      <stop offset="0%" stop-color="#f5f3ff" />
      <stop offset="100%" stop-color="#ede9fe" />
    </linearGradient>
  </defs>
  <rect width="1200" height="630" rx="48" fill="url(#bg)" />
  <g transform="translate(160 140)">
    <rect width="360" height="360" rx="32" fill="#083344" opacity="0.8" />
    <circle cx="180" cy="120" r="96" fill="#34d399" opacity="0.75" />
    <path d="M90 240h180v26H90z" fill="#2dd4bf" opacity="0.9" />
    <path d="M130 286h160v20H130z" fill="#5eead4" opacity="0.8" />
    <path d="M160 320h120v16H160z" fill="#99f6e4" opacity="0.7" />
  </g>
  <g transform="translate(560 120)">
    <rect width="480" height="180" rx="28" fill="url(#panel)" opacity="0.95" />
    <rect x="40" y="52" width="240" height="32" rx="14" fill="#4f46e5" opacity="0.8" />
    <rect x="40" y="104" width="360" height="22" rx="11" fill="#a855f7" opacity="0.55" />
  </g>
  <g transform="translate(520 340)">
    <rect width="520" height="180" rx="28" fill="#0f172a" opacity="0.45" />
    <rect x="56" y="60" width="180" height="48" rx="14" fill="#fb7185" opacity="0.8" />
    <rect x="260" y="60" width="200" height="48" rx="14" fill="#38bdf8" opacity="0.8" />
  </g>
  <text x="170" y="560" font-family="'Inter', 'Segoe UI', sans-serif" font-size="76" font-weight="600" fill="#ecfdf5">Scriptagher</text>
  <text x="170" y="608" font-family="'Inter', 'Segoe UI', sans-serif" font-size="30" fill="#a7f3d0">Flutter + Angular automation toolkit</text>
</svg>
