<svg xmlns="http://www.w3.org/2000/svg" viewBox="0 0 200 200">
  <!-- Definizioni dei gradienti -->
  <defs>
    <!-- Gradiente radiale per il corpo principale del sole -->
    <radialGradient id="sunCore" cx="50%" cy="50%" r="50%">
      <stop offset="0%" style="stop-color:#fff7e6"/>
      <stop offset="40%" style="stop-color:#ffdb4d"/>
      <stop offset="90%" style="stop-color:#ff9900"/>
      <stop offset="100%" style="stop-color:#ff8c00"/>
    </radialGradient>
    
    <!-- Gradiente per il bagliore esterno -->
    <radialGradient id="sunGlow" cx="50%" cy="50%" r="50%">
      <stop offset="0%" style="stop-color:rgba(255, 180, 0, 0.6)"/>
      <stop offset="50%" style="stop-color:rgba(255, 180, 0, 0.3)"/>
      <stop offset="100%" style="stop-color:rgba(255, 180, 0, 0)"/>
    </radialGradient>
  </defs>

  <!-- Bagliore esterno grande -->
  <circle cx="100" cy="100" r="95" fill="url(#sunGlow)"/>
  
  <!-- Bagliore medio -->
  <circle cx="100" cy="100" r="80" fill="url(#sunGlow)"/>
  
  <!-- Corpo principale del sole -->
  <circle cx="100" cy="100" r="60" fill="url(#sunCore)"/>
  
  <!-- Dettagli della superficie solare -->
  <g opacity="0.3">
    <path d="M70 80 Q100 60 130 80" fill="none" stroke="#fff7e6" stroke-width="2"/>
    <path d="M65 100 Q100 80 135 100" fill="none" stroke="#fff7e6" stroke-width="2"/>
    <path d="M70 120 Q100 100 130 120" fill="none" stroke="#fff7e6" stroke-width="2"/>
  </g>
  
  <!-- Raggi solari -->
  <g>
    <path d="M100 20 L100 0" stroke="#ffdb4d" stroke-width="4" opacity="0.7"/>
    <path d="M100 180 L100 200" stroke="#ffdb4d" stroke-width="4" opacity="0.7"/>
    <path d="M20 100 L0 100" stroke="#ffdb4d" stroke-width="4" opacity="0.7"/>
    <path d="M180 100 L200 100" stroke="#ffdb4d" stroke-width="4" opacity="0.7"/>
    <path d="M37 37 L20 20" stroke="#ffdb4d" stroke-width="4" opacity="0.7"/>
    <path d="M163 163 L180 180" stroke="#ffdb4d" stroke-width="4" opacity="0.7"/>
    <path d="M37 163 L20 180" stroke="#ffdb4d" stroke-width="4" opacity="0.7"/>
    <path d="M163 37 L180 20" stroke="#ffdb4d" stroke-width="4" opacity="0.7"/>
  </g>
</svg>