<svg xmlns="http://www.w3.org/2000/svg" width="1200" height="630" viewBox="0 0 1200 630" role="img" aria-labelledby="title desc">
  <title id="title">Daily Reporter project cover</title>
  <desc id="desc">Abstract illustration representing connected dashboards and automated reports.</desc>
  <defs>
    <linearGradient id="grad" x1="0%" y1="0%" x2="100%" y2="100%">
      <stop offset="0%" stop-color="#0f172a" />
      <stop offset="100%" stop-color="#1d4ed8" />
    </linearGradient>
    <linearGradient id="card" x1="0%" y1="0%" x2="0%" y2="100%">
      <stop offset="0%" stop-color="#f8fafc" />
      <stop offset="100%" stop-color="#dbeafe" />
    </linearGradient>
  </defs>
  <rect width="1200" height="630" fill="url(#grad)" rx="48" />
  <g transform="translate(140 110)">
    <rect x="0" y="0" width="520" height="340" rx="32" fill="url(#card)" opacity="0.95" />
    <rect x="48" y="72" width="424" height="48" rx="16" fill="#2563eb" opacity="0.65" />
    <rect x="48" y="152" width="284" height="32" rx="12" fill="#1e3a8a" opacity="0.35" />
    <rect x="48" y="208" width="348" height="32" rx="12" fill="#1e3a8a" opacity="0.2" />
    <circle cx="412" cy="196" r="42" fill="#1d4ed8" opacity="0.8" />
    <path d="M380 252h120v20H380z" fill="#6366f1" opacity="0.4" />
  </g>
  <g transform="translate(680 220)">
    <rect x="0" y="0" width="360" height="220" rx="28" fill="#0f172a" opacity="0.65" />
    <rect x="32" y="48" width="296" height="28" rx="14" fill="#38bdf8" opacity="0.85" />
    <rect x="32" y="96" width="220" height="18" rx="9" fill="#bae6fd" opacity="0.9" />
    <rect x="32" y="134" width="260" height="18" rx="9" fill="#bae6fd" opacity="0.65" />
    <circle cx="300" cy="170" r="26" fill="#38bdf8" opacity="0.85" />
  </g>
  <text x="150" y="540" font-family="'Inter', 'Segoe UI', sans-serif" font-size="72" font-weight="600" fill="#e2e8f0">Daily Reporter</text>
  <text x="150" y="592" font-family="'Inter', 'Segoe UI', sans-serif" font-size="28" fill="#cbd5f5">Angular + Google Apps Script automation</text>
</svg>
